<svg width="40" height="40" viewBox="0 0 40 40" fill="none" xmlns="http://www.w3.org/2000/svg">
<circle cx="20" cy="20" r="20" fill="#F08C00"/>
<g clip-path="url(#clip0_4_112)">
<path d="M23 29H21V26H19V29H17V27H15V29H12C11.7348 29 11.4804 28.8946 11.2929 28.7071C11.1054 28.5196 11 28.2652 11 28V25H13V23H11V21H14V19H11V17H13V15H11V12C11 11.7348 11.1054 11.4804 11.2929 11.2929C11.4804 11.1054 11.7348 11 12 11H18C18.2652 11 18.5196 11.1054 18.7071 11.2929C18.8946 11.4804 19 11.7348 19 12V21H28C28.2652 21 28.5196 21.1054 28.7071 21.2929C28.8946 21.4804 29 21.7348 29 22V28C29 28.2652 28.8946 28.5196 28.7071 28.7071C28.5196 28.8946 28.2652 29 28 29H25V27H23V29Z" fill="white"/>
</g>
<defs>
<clipPath id="clip0_4_112">
<rect width="24" height="24" fill="white" transform="translate(8 8)"/>
</clipPath>
</defs>
</svg>
