<svg width="40" height="40" viewBox="0 0 40 40" fill="none" xmlns="http://www.w3.org/2000/svg">
<circle cx="20" cy="20" r="20" fill="#F08C00"/>
<g clip-path="url(#clip0_4_90)">
<path d="M25 16H28L31 20.056V26H28.965C28.8461 26.8343 28.4302 27.5977 27.7937 28.1499C27.1571 28.7022 26.3427 29.0063 25.5 29.0063C24.6573 29.0063 23.8429 28.7022 23.2063 28.1499C22.5698 27.5977 22.1539 26.8343 22.035 26H16.965C16.8461 26.8343 16.4302 27.5977 15.7937 28.1499C15.1571 28.7022 14.3427 29.0063 13.5 29.0063C12.6573 29.0063 11.8429 28.7022 11.2063 28.1499C10.5698 27.5977 10.1539 26.8343 10.035 26H9V14C9 13.7348 9.10536 13.4804 9.29289 13.2929C9.48043 13.1054 9.73478 13 10 13H24C24.2652 13 24.5196 13.1054 24.7071 13.2929C24.8946 13.4804 25 13.7348 25 14V16ZM25 18V21H29V20.715L26.992 18H25Z" fill="white"/>
</g>
<defs>
<clipPath id="clip0_4_90">
<rect width="24" height="24" fill="white" transform="translate(8 8)"/>
</clipPath>
</defs>
</svg>
