<svg width="40" height="40" viewBox="0 0 40 40" fill="none" xmlns="http://www.w3.org/2000/svg">
<circle cx="20" cy="20" r="20" fill="#F08C00"/>
<g clip-path="url(#clip0_4_91)">
<path d="M27.562 20.098L29.093 22.75C30.06 24.424 29.486 26.565 27.813 27.531C27.28 27.838 26.677 28 26.063 28H24V30L19 26.5L24 23V25H26.062C26.15 25 26.236 24.977 26.312 24.933C26.525 24.81 26.613 24.555 26.533 24.332L26.495 24.25L24.964 21.598L27.562 20.098ZM15.737 17.384L16.267 23.464L14.537 22.464L13.505 24.25C13.461 24.326 13.438 24.412 13.438 24.5C13.438 24.745 13.615 24.95 13.848 24.992L13.938 25H17V28H13.938C12.005 28 10.438 26.433 10.438 24.5C10.438 23.886 10.6 23.282 10.907 22.75L11.938 20.964L10.206 19.964L15.736 17.384H15.737ZM21.75 10.969C22.282 11.276 22.724 11.718 23.031 12.25L24.061 14.036L25.794 13.036L25.264 19.116L19.732 16.536L21.464 15.536L20.433 13.75C20.389 13.674 20.326 13.61 20.25 13.567C20.037 13.444 19.772 13.495 19.619 13.677L19.567 13.75L18.037 16.402L15.438 14.902L16.968 12.25C17.935 10.576 20.076 10.002 21.75 10.969Z" fill="white"/>
</g>
<defs>
<clipPath id="clip0_4_91">
<rect width="24" height="24" fill="white" transform="translate(8 8)"/>
</clipPath>
</defs>
</svg>
