<svg width="123" height="25" viewBox="0 0 123 25" fill="none" xmlns="http://www.w3.org/2000/svg">
<path d="M5.152 1.864C7.488 1.864 9.208 2.288 10.312 3.136C11.432 3.984 11.992 5.272 11.992 7C11.992 7.784 11.84 8.472 11.536 9.064C11.248 9.64 10.856 10.136 10.36 10.552C9.88 10.952 9.36 11.28 8.8 11.536L13.84 19H9.808L5.728 12.424H3.784V19H0.16V1.864H5.152ZM4.888 4.84H3.784V9.472H4.96C6.16 9.472 7.016 9.272 7.528 8.872C8.056 8.472 8.32 7.88 8.32 7.096C8.32 6.28 8.04 5.704 7.48 5.368C6.936 5.016 6.072 4.84 4.888 4.84ZM27.6198 12.424C27.6198 14.6 27.0438 16.28 25.8918 17.464C24.7558 18.648 23.2038 19.24 21.2358 19.24C20.0198 19.24 18.9318 18.976 17.9718 18.448C17.0278 17.92 16.2838 17.152 15.7398 16.144C15.1958 15.12 14.9238 13.88 14.9238 12.424C14.9238 10.248 15.4918 8.576 16.6278 7.408C17.7638 6.24 19.3238 5.656 21.3078 5.656C22.5398 5.656 23.6278 5.92 24.5718 6.448C25.5158 6.976 26.2598 7.744 26.8038 8.752C27.3478 9.744 27.6198 10.968 27.6198 12.424ZM18.5718 12.424C18.5718 13.72 18.7798 14.704 19.1958 15.376C19.6278 16.032 20.3238 16.36 21.2838 16.36C22.2278 16.36 22.9078 16.032 23.3238 15.376C23.7558 14.704 23.9718 13.72 23.9718 12.424C23.9718 11.128 23.7558 10.16 23.3238 9.52C22.9078 8.864 22.2198 8.536 21.2598 8.536C20.3158 8.536 19.6278 8.864 19.1958 9.52C18.7798 10.16 18.5718 11.128 18.5718 12.424ZM37.8951 5.656C38.0711 5.656 38.2791 5.664 38.5191 5.68C38.7591 5.696 38.9511 5.72 39.0951 5.752L38.8311 9.112C38.7191 9.08 38.5511 9.056 38.3271 9.04C38.1191 9.008 37.9351 8.992 37.7751 8.992C37.1671 8.992 36.5831 9.104 36.0231 9.328C35.4631 9.536 35.0071 9.88 34.6551 10.36C34.3191 10.84 34.1511 11.496 34.1511 12.328V19H30.5751V5.896H33.2871L33.8151 8.104H33.9831C34.3671 7.432 34.8951 6.856 35.5671 6.376C36.2391 5.896 37.0151 5.656 37.8951 5.656ZM52.9088 12.424C52.9088 14.6 52.3328 16.28 51.1808 17.464C50.0448 18.648 48.4928 19.24 46.5248 19.24C45.3088 19.24 44.2208 18.976 43.2608 18.448C42.3168 17.92 41.5728 17.152 41.0288 16.144C40.4848 15.12 40.2128 13.88 40.2128 12.424C40.2128 10.248 40.7808 8.576 41.9168 7.408C43.0528 6.24 44.6128 5.656 46.5968 5.656C47.8288 5.656 48.9168 5.92 49.8608 6.448C50.8048 6.976 51.5488 7.744 52.0928 8.752C52.6368 9.744 52.9088 10.968 52.9088 12.424ZM43.8608 12.424C43.8608 13.72 44.0688 14.704 44.4848 15.376C44.9168 16.032 45.6128 16.36 46.5728 16.36C47.5168 16.36 48.1968 16.032 48.6128 15.376C49.0448 14.704 49.2608 13.72 49.2608 12.424C49.2608 11.128 49.0448 10.16 48.6128 9.52C48.1968 8.864 47.5088 8.536 46.5488 8.536C45.6048 8.536 44.9168 8.864 44.4848 9.52C44.0688 10.16 43.8608 11.128 43.8608 12.424ZM71.2482 5.656C72.7362 5.656 73.8562 6.04 74.6082 6.808C75.3762 7.56 75.7602 8.776 75.7602 10.456V19H72.1842V11.344C72.1842 9.456 71.5282 8.512 70.2162 8.512C69.2722 8.512 68.6002 8.848 68.2002 9.52C67.8002 10.192 67.6002 11.16 67.6002 12.424V19H64.0242V11.344C64.0242 9.456 63.3682 8.512 62.0562 8.512C61.0642 8.512 60.3762 8.888 59.9922 9.64C59.6242 10.376 59.4402 11.44 59.4402 12.832V19H55.8642V5.896H58.6002L59.0802 7.576H59.2722C59.6722 6.904 60.2162 6.416 60.9042 6.112C61.6082 5.808 62.3362 5.656 63.0882 5.656C64.0482 5.656 64.8642 5.816 65.5362 6.136C66.2082 6.44 66.7202 6.92 67.0722 7.576H67.3842C67.7842 6.904 68.3362 6.416 69.0402 6.112C69.7602 5.808 70.4962 5.656 71.2482 5.656ZM86.7383 5.656C88.2103 5.656 89.4023 6.232 90.3143 7.384C91.2263 8.52 91.6823 10.2 91.6823 12.424C91.6823 14.648 91.2103 16.344 90.2663 17.512C89.3223 18.664 88.1143 19.24 86.6423 19.24C85.6983 19.24 84.9463 19.072 84.3863 18.736C83.8263 18.384 83.3703 17.992 83.0183 17.56H82.8263C82.9543 18.232 83.0183 18.872 83.0183 19.48V24.76H79.4423V5.896H82.3463L82.8503 7.6H83.0183C83.3703 7.072 83.8423 6.616 84.4343 6.232C85.0263 5.848 85.7943 5.656 86.7383 5.656ZM85.5863 8.512C84.6583 8.512 84.0023 8.8 83.6183 9.376C83.2503 9.952 83.0503 10.832 83.0183 12.016V12.4C83.0183 13.664 83.2023 14.64 83.5703 15.328C83.9543 16 84.6423 16.336 85.6343 16.336C86.4503 16.336 87.0503 16 87.4343 15.328C87.8343 14.64 88.0343 13.656 88.0343 12.376C88.0343 9.8 87.2183 8.512 85.5863 8.512Z" fill="white"/>
<path d="M106.534 12.424C106.534 14.6 105.958 16.28 104.806 17.464C103.67 18.648 102.118 19.24 100.15 19.24C98.9338 19.24 97.8458 18.976 96.8858 18.448C95.9418 17.92 95.1978 17.152 94.6538 16.144C94.1098 15.12 93.8378 13.88 93.8378 12.424C93.8378 10.248 94.4058 8.576 95.5418 7.408C96.6778 6.24 98.2378 5.656 100.222 5.656C101.454 5.656 102.542 5.92 103.486 6.448C104.43 6.976 105.174 7.744 105.718 8.752C106.262 9.744 106.534 10.968 106.534 12.424ZM97.4858 12.424C97.4858 13.72 97.6938 14.704 98.1098 15.376C98.5418 16.032 99.2378 16.36 100.198 16.36C101.142 16.36 101.822 16.032 102.238 15.376C102.67 14.704 102.886 13.72 102.886 12.424C102.886 11.128 102.67 10.16 102.238 9.52C101.822 8.864 101.134 8.536 100.174 8.536C99.2298 8.536 98.5418 8.864 98.1098 9.52C97.6938 10.16 97.4858 11.128 97.4858 12.424ZM113.065 8.92C113.065 9.416 113.041 9.912 112.993 10.408C112.961 10.888 112.921 11.376 112.873 11.872H112.921C113.161 11.536 113.409 11.2 113.665 10.864C113.921 10.512 114.193 10.184 114.481 9.88L118.153 5.896H122.185L116.977 11.584L122.497 19H118.369L114.601 13.696L113.065 14.92V19H109.489V0.759999H113.065V8.92Z" fill="#F08C00"/>
</svg>
